<svg xmlns="http://www.w3.org/2000/svg" width="64" height="64" viewBox="0 0 64 64" fill="none"><g clip-path="url(#clip0_115_494)"><path d="M32.0028 51.4491C42.7442 51.4491 51.4518 42.7415 51.4518 32.0001C51.4518 21.2587 42.7442 12.551 32.0028 12.551C21.2613 12.551 12.5537 21.2587 12.5537 32.0001C12.5537 42.7415 21.2613 51.4491 32.0028 51.4491Z" fill="#DD1D26"></path><path d="M32.0032 0.00317383C24.2803 0.00317383 16.9549 2.73357 11.1535 7.72959L10.8133 4.55538C10.7395 3.86625 10.1209 3.36961 9.43204 3.44139C8.74291 3.51529 8.24427 4.13377 8.31805 4.82277L8.92486 10.4847C8.9891 11.0846 9.47119 11.5539 10.0727 11.6018C14.0127 11.9151 15.5885 12.0439 15.6671 12.0439C16.315 12.0439 16.8642 11.5456 16.9167 10.8887C16.9717 10.198 16.4564 9.5933 15.7656 9.53809L13.1472 9.3293C18.4353 4.91826 25.0441 2.5126 32.0032 2.5126C48.2625 2.5126 61.4905 15.7406 61.4905 31.9998C61.4905 48.2591 48.2625 61.4871 32.0032 61.4871C14.1063 61.4871 0.267525 45.5942 2.8146 27.7858C2.91272 27.0997 2.43603 26.4642 1.75004 26.366C1.06494 26.2689 0.428387 26.7446 0.330263 27.4305C-2.43828 46.7933 12.5538 63.9966 32.0031 63.9966C49.6869 63.9966 63.9999 49.686 63.9999 31.9998C64 14.3163 49.6894 0.00317383 32.0032 0.00317383Z" fill="black"></path><path d="M33.1324 40.0305V39.015C34.9333 38.4763 36.0856 36.9018 36.3467 35.3484C36.6952 33.2755 35.5706 31.4027 33.5484 30.6878C32.42 30.2889 31.1721 29.8073 30.473 29.2589C29.9751 28.8681 30.1759 27.4717 31.1641 27.1741C32.523 26.7644 33.4059 27.4982 33.445 27.5315C33.9546 27.9922 34.7414 27.9572 35.2083 27.4516C35.6892 26.9305 35.6409 26.1199 35.1147 25.6579C34.9944 25.5511 34.2766 24.9487 33.1324 24.6742V23.7184C33.1324 23.0254 32.5705 22.4636 31.8776 22.4636C31.1846 22.4636 30.6228 23.0254 30.6228 23.7184V24.7205C27.5017 25.5497 26.793 29.5616 28.9242 31.2334C29.718 31.856 30.8154 32.3835 32.712 33.0538C33.9693 33.4983 33.9421 34.5155 33.8719 34.9323C33.7296 35.7781 33.0183 36.6919 31.7924 36.7001C30.5875 36.7087 30.2126 36.6485 29.2876 36.0434C28.7078 35.6641 27.9299 35.8266 27.5506 36.4066C27.1712 36.9865 27.3338 37.7641 27.9136 38.1436C28.9404 38.8154 29.6904 39.0779 30.6226 39.1683V40.0306C30.6226 40.7235 31.1843 41.2854 31.8773 41.2854C32.5705 41.2853 33.1324 40.7235 33.1324 40.0305Z" fill="white"></path><path d="M46.3081 31.8745C46.3081 23.9178 39.8348 17.4446 31.8782 17.4446C23.9215 17.4446 17.4482 23.9178 17.4482 31.8745C17.4482 39.8312 23.9215 46.3045 31.8782 46.3045C39.8348 46.3045 46.3081 39.8312 46.3081 31.8745ZM19.9578 31.8745C19.9578 25.3016 25.3053 19.9541 31.8782 19.9541C38.4511 19.9541 43.7986 25.3016 43.7986 31.8745C43.7986 38.4474 38.4511 43.7949 31.8782 43.7949C25.3052 43.7949 19.9578 38.4474 19.9578 31.8745Z" fill="white"></path></g><defs><clipPath id="clip0_115_494"><rect width="64" height="64" fill="white"></rect></clipPath></defs></svg>